<svg width="200" height="61" viewBox="0 0 200 61" fill="none" xmlns="http://www.w3.org/2000/svg">
<g clip-path="url(#clip0_1_120)">
<path d="M27.6344 0C12.4385 0 0 12.4023 0 27.6606V58.9685H5.51641V27.6606C5.51641 15.4714 15.4044 5.57404 27.5829 5.57404C39.7614 5.57404 49.6494 15.4714 49.6494 27.6606V58.9685H55.1659V27.6606C55.2697 12.4023 42.8835 0 27.6344 0Z" fill="#2D2E46"/>
<path d="M38.8235 34.5368C37.1276 33.5125 35.184 32.9722 33.2032 32.9743C30.2773 32.9759 27.4718 34.1402 25.403 36.2112C23.3343 38.2823 22.1716 41.0907 22.1704 44.0193V58.916H27.6868V44.0193C27.6868 42.5549 28.268 41.1505 29.3025 40.1149C30.3371 39.0794 31.7402 38.4977 33.2032 38.4977C34.6663 38.4977 36.0694 39.0794 37.1039 40.1149C38.1385 41.1505 38.7196 42.5549 38.7196 44.0193V58.916H44.2395V36.7247C44.2395 33.5997 45.2805 30.734 47.0501 28.3401C46.9977 26.0474 46.6862 23.7556 45.9053 21.6201C41.9661 24.8485 39.4293 29.4784 38.827 34.5386L38.8235 34.5368Z" fill="#2D2E46"/>
<path d="M58.0263 17.3989C57.5042 17.4057 56.9828 17.4404 56.4644 17.5029C57.0879 19.2747 57.5237 21.1073 57.7645 22.9703H58.0769C65.6752 22.9703 71.8688 29.1715 71.8688 36.7753V58.9684H77.3852V36.7771C77.3328 26.0456 68.6935 17.3989 58.0254 17.3989H58.0263Z" fill="#2D2E46"/>
<path d="M91.6474 54.6443C92.4275 54.6443 92.8961 55.1133 93.0523 55.5824H93.8891C93.7329 54.7491 92.9004 53.915 91.5994 53.915C90.1937 53.915 89.2051 54.9046 89.2051 56.468V56.9361C89.2051 58.551 90.2461 59.4891 91.5994 59.4891C92.8481 59.4891 93.6805 58.703 93.8891 57.6663H93.0566C92.9004 58.3441 92.3804 58.7607 91.6518 58.7607C90.7146 58.7607 90.0384 58.0829 90.0384 56.8855V56.4165C90.0384 55.2182 90.7146 54.5937 91.6518 54.6452L91.6474 54.6443Z" fill="#2D2E46"/>
<path d="M96.4352 55.4785C95.3419 55.4785 94.6133 56.1554 94.6133 57.3537V57.6664C94.6133 58.8123 95.3419 59.5416 96.4352 59.5416C97.5286 59.5416 98.0486 59.0175 98.2563 58.2393H97.5277C97.3715 58.6035 97.1638 58.8638 96.4867 58.8638C95.8628 58.8638 95.4457 58.4996 95.4457 57.7179H98.361V57.3537C98.3086 56.2069 97.5277 55.4785 96.4352 55.4785ZM95.3942 57.0926C95.4981 56.4157 95.8628 56.103 96.4352 56.103C97.0591 56.103 97.4238 56.4157 97.4762 57.0926H95.3942Z" fill="#2D2E46"/>
<path d="M101.223 55.4785C100.971 55.4804 100.722 55.5319 100.489 55.6302C100.257 55.7285 100.047 55.8717 99.8696 56.0515L99.7658 55.4785H99.1934V59.3852H99.922V57.041C99.922 56.4681 100.338 56.103 101.014 56.103C101.587 56.103 101.952 56.4681 101.952 57.0926V59.3852H102.68V57.0926C102.784 56.0515 102.157 55.4785 101.223 55.4785Z" fill="#2D2E46"/>
<path d="M104.866 58.1869V56.1597H105.907V55.5344H104.866V54.4365H104.137V55.53H103.409V56.1597H104.137V58.2384C104.137 58.9677 104.554 59.3852 105.334 59.3852H106.011V58.7599H105.438C105.074 58.8123 104.866 58.6035 104.866 58.1869Z" fill="#2D2E46"/>
<path d="M107.468 56.0514L107.364 55.5273H106.792V59.434H107.52V57.0925C107.52 56.5195 107.937 56.1553 108.717 56.1553H109.133V55.4775H108.717C108.193 55.4775 107.728 55.6854 107.468 56.0505V56.0514Z" fill="#2D2E46"/>
<path d="M111.428 55.4785C110.334 55.4785 109.814 56.0026 109.814 56.6244H110.642C110.695 56.3117 110.904 56.1004 111.475 56.1004C112.046 56.1004 112.308 56.3624 112.308 56.7781V57.0402H111.476C110.174 57.0402 109.654 57.5083 109.654 58.3424C109.654 59.0193 110.122 59.4883 111.007 59.4883C111.278 59.4917 111.545 59.4324 111.789 59.315C112.033 59.1975 112.246 59.0252 112.412 58.8114L112.516 59.4359H113.086V56.7799C112.982 55.9467 112.462 55.4785 111.421 55.4785H111.428ZM112.26 57.7703C112.26 58.3433 111.737 58.8123 111.012 58.8123C110.647 58.8123 110.387 58.5503 110.387 58.2393C110.387 57.8743 110.649 57.5616 111.428 57.5616H112.26V57.7703Z" fill="#2D2E46"/>
<path d="M114.91 58.1867V53.9673H114.181V58.2391C114.181 58.9684 114.598 59.385 115.379 59.385H115.742V58.7596H115.481C115.064 58.812 114.908 58.6033 114.908 58.1867H114.91Z" fill="#2D2E46"/>
<path d="M120.114 53.9673L118.032 59.4365H118.866L119.438 57.9264H121.78L122.352 59.4365H123.185L121.103 53.9673H120.114ZM119.646 57.2486L120.169 55.9464L120.585 54.8005L121.002 55.9464L121.47 57.2486H119.646Z" fill="#2D2E46"/>
<path d="M124.33 56.572C124.33 56.2593 124.538 56.0479 125.115 56.0479C125.638 56.0479 125.791 56.2558 125.9 56.62H126.68C126.576 55.8907 126.108 55.4741 125.119 55.4741C124.078 55.4741 123.557 55.9423 123.557 56.5676C123.557 58.0786 125.952 57.4008 125.952 58.3389C125.952 58.7031 125.743 58.9118 125.119 58.9118C124.547 58.9118 124.334 58.7031 124.287 58.2341H123.501C123.605 59.0149 124.074 59.5363 125.115 59.5363C126.26 59.5363 126.728 59.0673 126.728 58.3904C126.78 56.7231 124.334 57.4 124.334 56.5667L124.33 56.572Z" fill="#2D2E46"/>
<path d="M127.657 54.4363C127.657 54.6983 127.866 54.9044 128.181 54.9044C128.443 54.9044 128.705 54.6966 128.705 54.4363C128.705 54.176 128.497 53.9673 128.181 53.9673C127.919 53.9673 127.657 54.1752 127.657 54.4363Z" fill="#2D2E46"/>
<path d="M128.493 55.5298H127.765V59.4365H128.493V55.5298Z" fill="#2D2E46"/>
<path d="M131.355 55.4785C130.262 55.4785 129.742 56.0026 129.742 56.6244H130.575C130.627 56.3117 130.836 56.1004 131.408 56.1004C131.979 56.1004 132.24 56.3624 132.24 56.7781V57.0402H131.41C130.108 57.0402 129.588 57.5083 129.588 58.3424C129.588 59.0193 130.056 59.4883 130.941 59.4883C131.211 59.4917 131.479 59.4324 131.723 59.315C131.967 59.1975 132.18 59.0252 132.346 58.8114L132.45 59.4359H133.022V56.7799C132.918 55.9467 132.346 55.4785 131.357 55.4785H131.355ZM132.136 57.7703C132.136 58.3433 131.613 58.8123 130.887 58.8123C130.523 58.8123 130.262 58.5503 130.262 58.2393C130.262 57.8743 130.524 57.5616 131.303 57.5616H132.136V57.7703Z" fill="#2D2E46"/>
<path d="M136.039 55.4785C135.787 55.4804 135.538 55.5319 135.306 55.6302C135.074 55.7285 134.863 55.8717 134.686 56.0515L134.582 55.4785H134.01V59.3852H134.738V57.041C134.738 56.4681 135.155 56.103 135.831 56.103C136.403 56.103 136.768 56.4681 136.768 57.0926V59.3852H137.497V57.0926C137.6 56.0515 136.973 55.4785 136.039 55.4785Z" fill="#2D2E46"/>
<path d="M140.827 59.4365H144.418V58.7596H141.608V56.936H143.898V56.2591H141.608V54.6442H144.418V53.9673H140.827V59.4365Z" fill="#2D2E46"/>
<path d="M148.738 55.5298H147.905L146.864 56.936L145.875 55.5298H145.043L146.448 57.405L144.939 59.4365H145.771L146.864 57.9264L147.957 59.4365H148.842L147.332 57.405L148.738 55.5298Z" fill="#2D2E46"/>
<path d="M151.496 55.4785C150.924 55.4785 150.455 55.6864 150.143 56.103L150.039 55.53H149.466V60.9993H150.195V59.0202C150.457 59.3852 150.872 59.5442 151.444 59.5442C152.381 59.5442 153.057 58.8664 153.057 57.669V57.3563C153.161 56.1056 152.433 55.4811 151.496 55.4811V55.4785ZM152.381 57.614C152.381 58.4472 152.016 58.8123 151.34 58.8123C150.768 58.8123 150.299 58.3948 150.299 57.614V57.3013C150.299 56.572 150.768 56.1554 151.34 56.1554C152.016 56.1554 152.381 56.5196 152.381 57.3528V57.6148V57.614Z" fill="#2D2E46"/>
<path d="M155.712 55.4785C154.566 55.4785 153.837 56.1554 153.837 57.3537V57.6664C153.837 58.8123 154.566 59.5416 155.712 59.5416C156.857 59.5416 157.587 58.8673 157.587 57.6664V57.3537C157.637 56.1598 156.908 55.4785 155.712 55.4785ZM156.857 57.614C156.857 58.4 156.44 58.8123 155.712 58.8123C155.035 58.8123 154.566 58.3948 154.566 57.614V57.3013C154.566 56.5152 154.982 56.103 155.711 56.103C156.387 56.103 156.856 56.5196 156.856 57.3013L156.857 57.614Z" fill="#2D2E46"/>
<path d="M164.299 57.2486C164.299 58.2906 163.726 58.7596 162.841 58.7596C161.957 58.7596 161.384 58.1867 161.384 57.2486V53.9673H160.599V57.2486C160.599 58.7072 161.431 59.4889 162.837 59.4889C164.19 59.4889 165.074 58.6557 165.074 57.2486V53.9673H164.294V57.2486H164.299Z" fill="#2D2E46"/>
<path d="M166.016 56.1551H168.253L165.912 58.812V59.4365H169.138V58.812H166.797L169.138 56.1551V55.5298H166.016V56.1551Z" fill="#2D2E46"/>
<path d="M171.948 55.4786C171.376 55.4786 170.96 55.6349 170.7 56.0026V54.02H169.971V59.4901H170.544L170.647 58.9172C170.909 59.3338 171.376 59.5425 172.001 59.5425C172.937 59.5425 173.614 58.8648 173.614 57.6673V57.3547C173.562 56.104 172.937 55.4795 171.948 55.4795V55.4786ZM172.833 57.6141C172.833 58.4473 172.469 58.8124 171.792 58.8124C171.22 58.8124 170.751 58.3949 170.751 57.6141V57.3014C170.751 56.5721 171.22 56.1555 171.792 56.1555C172.417 56.1555 172.833 56.5197 172.833 57.3529V57.6149V57.6141Z" fill="#2D2E46"/>
<path d="M176.164 55.4785C175.071 55.4785 174.343 56.1554 174.343 57.3537V57.6664C174.343 58.8123 175.071 59.5416 176.164 59.5416C177.256 59.5416 177.777 59.0175 177.986 58.2393H177.257C177.101 58.6035 176.892 58.8638 176.216 58.8638C175.591 58.8638 175.175 58.4996 175.175 57.7179H178.092V57.3537C177.988 56.2069 177.26 55.4785 176.166 55.4785H176.164ZM175.071 57.0926C175.175 56.4157 175.539 56.103 176.112 56.103C176.736 56.103 177.101 56.4157 177.152 57.0926H175.071Z" fill="#2D2E46"/>
<path d="M182.253 55.5298H181.316L179.703 57.5089V53.9673H178.974V59.4365H179.703V58.4994L180.327 57.7177L181.473 59.4365H182.409L180.796 57.2486L182.253 55.5298Z" fill="#2D2E46"/>
<path d="M183.919 55.5298H183.19V59.4365H183.919V55.5298Z" fill="#2D2E46"/>
<path d="M183.034 54.4363C183.034 54.6983 183.242 54.9044 183.557 54.9044C183.819 54.9044 184.081 54.6966 184.081 54.4363C184.081 54.176 183.873 53.9673 183.557 53.9673C183.241 53.9673 183.034 54.1752 183.034 54.4363Z" fill="#2D2E46"/>
<path d="M185.792 56.572C185.792 56.2593 186 56.0479 186.577 56.0479C187.101 56.0479 187.253 56.2558 187.358 56.62H188.138C188.034 55.8907 187.566 55.4741 186.577 55.4741C185.536 55.4741 185.015 55.9423 185.015 56.5676C185.015 58.0786 187.41 57.4008 187.41 58.3389C187.41 58.7031 187.201 58.9118 186.577 58.9118C186.005 58.9118 185.792 58.7031 185.744 58.2341H184.964C185.068 59.0149 185.536 59.5363 186.577 59.5363C187.722 59.5363 188.191 59.0673 188.191 58.3904C188.242 56.7231 185.796 57.4 185.796 56.5667L185.792 56.572Z" fill="#2D2E46"/>
<path d="M190.216 58.1869V56.1597H191.257V55.5344H190.216V54.4365H189.43V55.53H188.702V56.1597H189.436V58.2384C189.436 58.9677 189.852 59.3852 190.633 59.3852H191.309V58.7599H190.737C190.373 58.8123 190.213 58.6035 190.213 58.1869H190.216Z" fill="#2D2E46"/>
<path d="M193.703 55.4785C192.609 55.4785 192.089 56.0026 192.089 56.6244H192.926C192.978 56.3117 193.188 56.1004 193.759 56.1004C194.329 56.1004 194.592 56.3624 194.592 56.7781V57.0402H193.759C192.458 57.0402 191.938 57.5083 191.938 58.3424C191.938 59.0193 192.406 59.4883 193.291 59.4883C193.561 59.4917 193.829 59.4324 194.073 59.315C194.316 59.1975 194.53 59.0252 194.696 58.8114L194.8 59.4359H195.369V56.7799C195.318 55.9467 194.745 55.4785 193.704 55.4785H193.703ZM194.584 57.7703C194.584 58.3433 194.06 58.8123 193.334 58.8123C192.971 58.8123 192.711 58.5503 192.711 58.2393C192.711 57.8743 192.972 57.5616 193.751 57.5616H194.584V57.7703Z" fill="#2D2E46"/>
<path d="M198.438 55.4785C198.186 55.4802 197.937 55.5316 197.705 55.6299C197.473 55.7283 197.262 55.8715 197.086 56.0515L196.981 55.4785H196.408V59.3852H197.137V57.041C197.137 56.4681 197.553 56.103 198.23 56.103C198.803 56.103 199.167 56.4681 199.167 57.0926V59.3852H199.895V57.0926C200 56.0515 199.372 55.4785 198.438 55.4785Z" fill="#2D2E46"/>
<path d="M130.106 17.9194C127.296 17.9194 125.787 19.6383 125.787 19.6383C126.828 21.5659 126.203 23.3939 125.37 25.4211L115.482 49.2265H120.892L122.818 44.0734H139.055L141.032 49.2265H147.228C147.228 49.2265 138.641 27.7129 136.767 22.8166C135.361 19.1177 132.864 17.9194 130.105 17.9194H130.106ZM124.329 39.9544L130.786 22.8166L137.448 39.9544H124.329Z" fill="#2D2E46"/>
<path d="M102.055 21.8264C107.259 21.8264 110.17 24.5872 111.84 26.9314C112.777 26.2546 114.129 24.796 114.129 22.8168C114.129 20.2639 111.371 17.8682 104.814 17.8682C94.4055 17.8682 86.1824 25.1086 86.1824 34.4331C86.1824 41.622 91.2826 49.6442 102.316 49.6442C109.446 49.6442 113.505 45.9454 113.505 45.9454L114.078 42.195C112.36 43.2885 108.977 44.9025 104.345 44.9025C95.7589 44.9025 91.855 38.8603 91.855 32.6085C91.9597 25.2117 97.4237 21.8255 102.055 21.8255V21.8264Z" fill="#2D2E46"/>
<path d="M200 49.1225L191.204 38.2924L197.138 31.051C198.751 29.1234 198.023 26.6753 195.421 26.6753C193.807 26.6753 192.559 27.6657 192.559 27.6657C192.559 27.6657 192.923 29.4885 190.997 31.8851L188.499 34.8547L183.451 28.6038C182.462 27.4579 181.525 26.6762 179.912 26.6762C177.778 26.6762 176.633 28.2911 176.633 28.2911C176.633 28.2911 177.778 29.333 180.536 32.8747L185.117 38.7614L176.478 49.0754H182.412L187.929 42.3039L193.185 49.0754H200.003V49.1278L200 49.1225Z" fill="#2D2E46"/>
<path d="M163.57 22.2437C168.774 22.2437 171.636 23.7538 172.626 24.3268C173.302 23.6499 174.134 22.6079 174.134 21.3057C174.134 19.5344 172.782 18.4409 170.491 18.4409H150.143C151.028 19.7947 151.235 22.0874 151.235 23.856L151.184 49.12H172.937L173.562 45.0569H156.801V35.6347H168.511L169.135 31.5192H156.801V22.1913L163.567 22.2437H163.57Z" fill="#2D2E46"/>
</g>
<defs>
<clipPath id="clip0_1_120">
<rect width="200.003" height="61" fill="white"/>
</clipPath>
</defs>
</svg>
