<svg xmlns="http://www.w3.org/2000/svg" width="59" height="59" viewBox="0 0 59 59" fill="none">
  <rect x="59" width="59" height="59" rx="29.5" transform="rotate(90 59 0)" fill="#F2632A"/>
  <path d="M20.6625 25.7475C20.6625 25.5575 20.7325 25.3675 20.8825 25.2175C21.1725 24.9275 21.6525 24.9275 21.9425 25.2175L28.4625 31.7375C28.9425 32.2175 29.7225 32.2175 30.2025 31.7375L36.7225 25.2175C37.0125 24.9275 37.4925 24.9275 37.7825 25.2175C38.0725 25.5075 38.0725 25.9875 37.7825 26.2775L31.2625 32.7975C30.7525 33.3075 30.0625 33.5975 29.3325 33.5975C28.6025 33.5975 27.9125 33.3175 27.4025 32.7975L20.8825 26.2775C20.7425 26.1275 20.6625 25.9375 20.6625 25.7475Z" fill="white"/>
</svg>