<svg width="40" height="40" viewBox="0 0 40 40" fill="none" xmlns="http://www.w3.org/2000/svg">
<path d="M15.9004 40C10.5957 40 13.8469 32.7572 19.1516 21.07C8.54226 29.7942 2.55311 35.0617 0.328571 30.7819C-1.38261 26.6667 3.40871 25.1852 18.9805 20.0823C5.29101 14.6502 1.35528 13.1687 4.77766 9.05349C8.54226 4.77366 12.9913 11.0288 19.665 19.0947C18.9805 6.58436 18.8094 0 23.9429 0C29.2476 0 25.9964 7.4074 20.6917 19.0947C31.1299 10.3704 37.6324 4.77366 39.6858 9.05349C41.397 13.3333 36.2635 14.8148 20.6917 20.0823C34.7234 25.5144 38.6591 26.6667 35.2368 30.7819C31.1299 35.3909 27.0231 29.3004 20.1783 20.9053C20.8628 33.251 21.0339 40 15.9004 40Z" fill="#FFE5C1"/>
</svg>
